/* XPM */
static const char *co[] = {
/* columns rows colors chars-per-pixel */
"16 18 32 1",
"  c black",
". c #1c0c01",
"X c #121209",
"o c #1a1812",
"O c #210f01",
"+ c #231001",
"@ c #704415",
"# c #7a4b1d",
"$ c #534f4c",
"% c #736a5a",
"& c #606060",
"* c #825234",
"= c #92612d",
"- c #9f6c3a",
"; c #897862",
": c #a36f52",
"> c #c37c40",
", c #b7804e",
"< c #fe8f0c",
"1 c #c38a5a",
"2 c #ce9669",
"3 c #d49f71",
"4 c #a09380",
"5 c #f0b594",
"6 c #fac78c",
"7 c #facb8d",
"8 c #f7c9ac",
"9 c #fec5a7",
"0 c #ffd1b1",
"q c #f6dccb",
"w c #ffe2cd",
"e c None",
/* pixels */
"eeee7>eeeeeeeeee",
"eeee<6>eeeeeeeee",
"eeee129=eeeeeeee",
"eee-112w=eeeeeee",
"eee -112w=eeeeee",
"eeee.-1129=eeeee",
"eeeeeO-11:w3eeee",
"eeeeee+-,15q3eee",
"eeeeeeeX##,05eee",
"eeeeeeee,@*,83ee",
"eeeeeeeeee,@:;ee",
"eeeeeeeeeeee$o4e",
"eee&e       e %e",
"ee&&&eeeeeeeeeee",
"e&&&&&eeeeeeeeee",
"&&&&&&&&&&&&&&ee",
"&&&&&&&&&&&&&&&e",
"&&&&&&&&&&&&&&&&"
};
