/* XPM */
static const char *finished[]={
"16 16 141 2",
"Qt c None",
".k c #9f1005",
"af c #9f1105",
".# c #a01105",
"aj c #a01201",
".M c #a01205",
"ak c #a11703",
"#1 c #a21705",
"#9 c #a21905",
"#R c #a21907",
"#J c #a21b09",
"#D c #a51d0c",
"#w c #a51f0e",
"#o c #a52110",
"#h c #a72312",
".9 c #a72413",
".x c #a72718",
".Z c #a82b19",
".i c #aa2e20",
".h c #ac3120",
".g c #ac3122",
".j c #ac3421",
"#2 c #ac3422",
".f c #ac3423",
".e c #ac3525",
".c c #ae3829",
".d c #af3526",
".b c #af3829",
".N c #b03f2f",
".a c #b14030",
".z c #b23e18",
".P c #b8522c",
".A c #b8532e",
".B c #b95831",
".Q c #bb5e37",
".C c #bc5c36",
".D c #bd6038",
".G c #c06b43",
"## c #c26d46",
".H c #c26e48",
"#j c #c3714a",
".R c #c46b49",
".I c #c4724b",
"#q c #c4744d",
".J c #c4754e",
"#4 c #c5764f",
"#c c #c57750",
".m c #c6714c",
".K c #c67953",
".W c #c67b54",
".0 c #c77753",
".n c #c77954",
"ai c #c77955",
"ae c #c77c57",
".X c #c77e57",
"#i c #c87754",
".o c #c87c54",
".O c #c87c57",
".p c #c87e58",
"#s c #c8815a",
".7 c #c8825c",
".r c #c98159",
"#z c #c98560",
"#f c #c98661",
".q c #ca8158",
".V c #ca815d",
".t c #ca875c",
"#F c #ca8862",
"#m c #ca8963",
".u c #ca8a5e",
"#S c #ca8a5f",
"#E c #cc815e",
".s c #cc855a",
"#3 c #cc8a5f",
".6 c #cd8863",
".v c #ce8f63",
"#T c #cf8b6a",
"a# c #cf926e",
".8 c #cf9469",
".Y c #d09468",
"#n c #d0976d",
"#g c #d1956b",
"#v c #d19b72",
"#C c #d29d76",
".E c #d39173",
"#H c #d39977",
".L c #d39e72",
"#6 c #d49e7f",
"#Q c #d4a17d",
".F c #d59376",
"#P c #d59e7f",
"#Z c #d5a283",
".w c #d5a576",
"a. c #d5a677",
"#I c #d79f79",
"#u c #d7a07f",
"ag c #d7a582",
"#8 c #d7a585",
"#0 c #d7a685",
"#p c #d8997b",
"#x c #d89b7e",
"#Y c #d9a185",
"ac c #d9a88b",
"#7 c #daa98d",
"#K c #dba285",
"ah c #dbb092",
".2 c #dca288",
"#B c #dcac90",
".y c #dcb492",
".l c #ddb593",
"aa c #e1b195",
"ab c #e1b59a",
"#. c #e2ab93",
"#U c #e2b39a",
".3 c #e3b097",
"#V c #e3b59b",
"#d c #e5b59e",
"ad c #e5c8ae",
"#N c #e9c0a9",
"#t c #ecc5b1",
"#A c #edc7b2",
"#b c #eec6b3",
"#e c #f0cdba",
"#M c #f1cfbc",
"#a c #f2cfbd",
".U c #f3d0bf",
".S c #f7d4c5",
".1 c #f8d7c8",
"#O c #f9ded0",
"#L c #fadfd1",
"#W c #fce4d5",
"#5 c #fde7da",
".4 c #ffefe5",
"#k c #fff0e6",
"#r c #fff0e7",
"#y c #fff1e7",
"#l c #fff2e8",
"#G c #fff5ec",
".5 c #fffaf3",
"#X c #fffff9",
".T c #ffffff",
"QtQt.#.a.b.c.d.e.f.g.h.i.j.kQtQt",
"Qt.b.l.m.n.o.p.q.r.s.t.u.v.w.xQt",
".#.y.z.A.B.C.D.E.F.G.H.I.J.K.L.M",
".N.O.P.Q.R.S.T.T.T.T.U.V.W.X.Y.Z",
".b.0.B.R.T.T.1.2.3.4.T.5.6.7.8.9",
".c.o.C.S.T#.###a#b#c#d.T#e#f#g#h",
".d.p#i.T.1###j.4#k.W.X#l.T#m#n#o",
".e.q.E.T#p#j#q#k#r.X#s#t.T#u#v#w",
".f.r.F.T#x#q#c#r#y#s#z#A.T#B#C#D",
".g.s#E.T.U#c.W#y#l#z#F#G.T#H#I#J",
".h.t.H.4.T#K.X#L#M#F#N.T#O#P#Q#R",
".i#S.I#T.T.T#L#U#V#W.T#X#Y#Z#0#1",
"#2#3#4.W.6#L.T.T.T.T#5#Y#6#7#8#9",
".ka..K.X.7#fa#aaab#H#P#Zacadaeaf",
"Qt.x.L.Y.8#g#n#v#C#I#QagahaiajQt",
"QtQt.M.Z.9#h#o#w#D#J#R#1akafQtQt"};
