/* XPM */
static const char *scaletoscreen[]={
"16 16 7 1",
". c None",
"# c #000000",
"e c #000080",
"d c #585858",
"a c #c0c000",
"c c #ffffc0",
"b c #ffffff",
"................",
"#######.........",
"#aaaaa##b#b#....",
"#aaaaa#ccccb....",
"#aabbbb#########",
"#aabaadccccbaaa#",
"###bdddcccc#aaa#",
".bc#cccccccbaaa#",
".#c#ccccccc#aaa#",
".bc#cccccceaaaa#",
".#b#b#b#b#aeaea#",
"...#aaaaaaaaeea#",
"...#aaaaaaaeeea#",
"...#aaaaaaaaaaa#",
"...#############",
"................"};
