/* XPM */
static const char *scanner[]={
"22 22 160 2",
"Qt c None",
"#T c #515172",
"#2 c #575877",
"#U c #596f97",
"#n c #5a73a2",
"#Y c #5b5c7a",
"#7 c #5b6886",
"#b c #5d80b6",
"#8 c #5e6a87",
"#9 c #606b87",
".1 c #647aa7",
"aC c #683919",
"ax c #693a1d",
"aD c #6c6373",
"#J c #70a2cf",
"aB c #746a79",
".C c #74a7dc",
".s c #76bbf5",
".k c #77bcf5",
".c c #7aafe3",
".j c #7c98c4",
".P c #7cc2f5",
".d c #7dc2f6",
"aA c #7f5432",
"#R c #7f859c",
"#Z c #818199",
".a c #86aad7",
"#3 c #87879e",
"#0 c #87b6d2",
".2 c #87cbf7",
"#A c #88ccf7",
".D c #89ccf7",
".h c #89cef7",
".e c #8ccff7",
".# c #8da8d0",
".l c #8dd0f7",
".i c #8eb8dd",
"#C c #8ed1f8",
"#o c #8ed2f8",
".g c #8fd2f8",
".f c #90d3f8",
".t c #91d5f8",
".O c #92acc3",
".Q c #92d5f8",
".r c #95d3f3",
".o c #95d7f8",
"#1 c #96a6b7",
".m c #96d8f8",
"ay c #97672f",
".z c #97d8f8",
".3 c #97daf9",
"at c #98672f",
"#p c #98dbf9",
"#K c #99dbf9",
"#c c #99dcf9",
".b c #9aacc9",
"#d c #9addf9",
".n c #9bddf9",
"#B c #9cdef9",
".B c #9ed2e9",
".y c #9ee0f9",
"ao c #9f6c2e",
".p c #9fe1f9",
"#5 c #a0928f",
"#e c #a0e0f9",
"#L c #a0e2fb",
"#4 c #a1a1b3",
".q c #a2e3fb",
".A c #a2e4fb",
".E c #a3e4fb",
".u c #a4e6fb",
"#D c #a6e6fb",
".U c #a6e7fb",
".K c #a7e8fb",
"aj c #a8732d",
"#q c #a8e8fb",
"a. c #aa6c27",
".I c #aae8fb",
".L c #abecfc",
".0 c #aee0e8",
"#f c #aee9fb",
".x c #afeefc",
"#r c #b0eefc",
".M c #b0f0fc",
".v c #b1f1fc",
"af c #b27a2d",
"#s c #b2eefc",
"#M c #b2f2fd",
"#V c #b3f2fd",
".7 c #b3f3fd",
".w c #b5f3fd",
"as c #b7680d",
"#E c #b7f3fd",
".W c #b7f7fd",
".N c #b8f7fd",
".F c #bcf9fd",
"an c #bd6c0e",
".X c #bdfbfe",
"#6 c #be7620",
".Y c #befcfe",
".J c #bffbfe",
"#W c #bffcfe",
".Z c #c2fdfe",
"ai c #c3720f",
"#F c #c3fdfe",
"#I c #c4dbe2",
".9 c #c5fefe",
"#a c #c8fefe",
"ae c #c97610",
"#t c #c9fbfe",
"#g c #c9fcfe",
"#. c #c9fefe",
"#X c #cad7e0",
".V c #caf9fd",
"## c #cafefe",
".R c #cbfefe",
".G c #ccfefe",
"#S c #ced7e0",
".4 c #cefefe",
"aa c #cf7b10",
"#i c #cffefe",
".H c #d0fefe",
"#m c #d2fefe",
".6 c #d3f6fd",
"#j c #d3fefe",
".8 c #d5fdfe",
"#l c #d5fefe",
"#k c #d6fefe",
"#v c #d8fefe",
"#z c #dafefe",
"#u c #dbfefe",
"#h c #ddfefe",
"#w c #defefe",
"a# c #e09c34",
"#y c #e0fefe",
"#x c #e1fefe",
"aw c #e29e32",
".S c #e2fefe",
"#N c #e4fefe",
".5 c #e7fefe",
"#G c #e8fefe",
".T c #e9fefe",
"ab c #ebcb7c",
"ar c #eca636",
"am c #eca737",
"ad c #eca839",
"#H c #ecfefe",
"#O c #f0fefe",
"az c #f2dc96",
"#Q c #f2fefe",
"av c #f6d384",
"aq c #f6d585",
"al c #f6d687",
"ah c #f6d688",
"ac c #f6d78b",
"#P c #f7fefe",
"ag c #fde89b",
"ak c #fde99e",
"ap c #fde99f",
"au c #fdeba0",
"QtQtQtQtQtQt.#.a.bQtQtQtQtQtQtQtQtQtQtQtQtQt",
"QtQtQtQt.c.d.e.f.g.h.iQtQtQtQtQtQtQtQtQtQtQt",
"QtQt.j.k.l.m.n.n.o.p.q.rQtQtQtQtQtQtQtQtQtQt",
"QtQt.s.t.u.v.w.x.y.z.A.x.BQtQtQtQtQtQtQtQtQt",
"Qt.C.D.E.F.G.H.I.J.K.L.M.N.OQtQtQtQtQtQtQtQt",
"Qt.P.Q.x.R.S.T.U.V.W.X.Y.Z.0QtQtQtQtQtQtQtQt",
".1.2.3.v.4.5.6.7.8.9#..R###aQtQtQtQtQtQtQtQt",
"#b.e#c#d#e#f.v#g#h#i#j#k#l#mQtQtQtQtQtQtQtQt",
"#n#o#p#q#r#s#t#u.H#v#w#x#y#zQtQtQtQtQtQtQtQt",
"Qt#A#B#C#D#E#F.R#k#y#G#H.T#IQtQtQtQtQtQtQtQt",
"Qt#J#B#K#L#M#F.4#z#N#O#P#Q#RQtQtQtQtQtQtQtQt",
"QtQt.Q.K.u#M#F.4#z#N#O#P#S#TQtQtQtQtQtQtQtQt",
"QtQt#U#B.v#V#W.R#k#y#G#X#Y#ZQtQtQtQtQtQtQtQt",
"QtQtQtQt#0#V#W#a.H#v#1#2#3#4#5#6QtQtQtQtQtQt",
"QtQtQtQtQtQt#7#8#9QtQtQtQtQta.a#aaQtQtQtQtQt",
"QtQtQtQtQtQtQtQtQtQtQtQtQtQtabacadaeQtQtQtQt",
"QtQtQtQtQtQtQtQtQtQtQtQtQtQtafagahadaiQtQtQt",
"QtQtQtQtQtQtQtQtQtQtQtQtQtQtQtajakalamanQtQt",
"QtQtQtQtQtQtQtQtQtQtQtQtQtQtQtQtaoapaqarasQt",
"QtQtQtQtQtQtQtQtQtQtQtQtQtQtQtQtQtatauavawax",
"QtQtQtQtQtQtQtQtQtQtQtQtQtQtQtQtQtQtayazaAaB",
"QtQtQtQtQtQtQtQtQtQtQtQtQtQtQtQtQtQtQtaCaDQt"};
